<mxfile host="app.diagrams.net" modified="2024-04-21T15:40:18.518Z" agent="Mozilla/5.0 (Windows NT 10.0; Win64; x64) AppleWebKit/537.36 (KHTML, like Gecko) Chrome/123.0.0.0 Safari/537.36" etag="tTjrqt1V-ObdtVcMLe6o" version="24.2.7" type="github">
  <diagram name="Seite-1" id="dWiR_hnGhJCTKMr1ZvEQ">
    <mxGraphModel dx="1232" dy="1096" grid="1" gridSize="10" guides="1" tooltips="1" connect="1" arrows="1" fold="1" page="1" pageScale="1" pageWidth="827" pageHeight="1169" math="0" shadow="0">
      <root>
        <mxCell id="0" />
        <mxCell id="1" parent="0" />
        <mxCell id="hHR5lF73qiIwatu3_dXv-20" value="" style="rounded=0;whiteSpace=wrap;html=1;strokeColor=none;" vertex="1" parent="1">
          <mxGeometry x="44" y="10" width="740" height="810" as="geometry" />
        </mxCell>
        <mxCell id="hHR5lF73qiIwatu3_dXv-1" value="&lt;font style=&quot;font-size: 22px;&quot;&gt;Move player&lt;/font&gt;" style="rounded=0;whiteSpace=wrap;html=1;" vertex="1" parent="1">
          <mxGeometry x="405" y="420" width="120" height="60" as="geometry" />
        </mxCell>
        <mxCell id="hHR5lF73qiIwatu3_dXv-5" value="&lt;font style=&quot;font-size: 22px;&quot;&gt;Place bomb&lt;/font&gt;" style="rounded=0;whiteSpace=wrap;html=1;" vertex="1" parent="1">
          <mxGeometry x="400" y="530" width="130" height="70" as="geometry" />
        </mxCell>
        <mxCell id="hHR5lF73qiIwatu3_dXv-6" value="&lt;font style=&quot;font-size: 20px;&quot;&gt;Reset score&lt;/font&gt;" style="rounded=0;whiteSpace=wrap;html=1;" vertex="1" parent="1">
          <mxGeometry x="390" y="320" width="150" height="60" as="geometry" />
        </mxCell>
        <mxCell id="hHR5lF73qiIwatu3_dXv-7" value="&lt;font style=&quot;font-size: 22px;&quot;&gt;Start Game&lt;/font&gt;" style="rounded=0;whiteSpace=wrap;html=1;" vertex="1" parent="1">
          <mxGeometry x="405" y="230" width="120" height="60" as="geometry" />
        </mxCell>
        <mxCell id="hHR5lF73qiIwatu3_dXv-11" style="edgeStyle=orthogonalEdgeStyle;rounded=0;orthogonalLoop=1;jettySize=auto;html=1;entryX=0;entryY=0.75;entryDx=0;entryDy=0;" edge="1" parent="1" source="hHR5lF73qiIwatu3_dXv-8" target="hHR5lF73qiIwatu3_dXv-7">
          <mxGeometry relative="1" as="geometry">
            <Array as="points">
              <mxPoint x="220" y="415" />
              <mxPoint x="220" y="275" />
            </Array>
          </mxGeometry>
        </mxCell>
        <mxCell id="hHR5lF73qiIwatu3_dXv-12" style="edgeStyle=orthogonalEdgeStyle;rounded=0;orthogonalLoop=1;jettySize=auto;html=1;entryX=0;entryY=0.5;entryDx=0;entryDy=0;" edge="1" parent="1" source="hHR5lF73qiIwatu3_dXv-8" target="hHR5lF73qiIwatu3_dXv-6">
          <mxGeometry relative="1" as="geometry">
            <Array as="points">
              <mxPoint x="220" y="415" />
              <mxPoint x="220" y="350" />
            </Array>
          </mxGeometry>
        </mxCell>
        <mxCell id="hHR5lF73qiIwatu3_dXv-13" style="edgeStyle=orthogonalEdgeStyle;rounded=0;orthogonalLoop=1;jettySize=auto;html=1;" edge="1" parent="1" source="hHR5lF73qiIwatu3_dXv-8" target="hHR5lF73qiIwatu3_dXv-1">
          <mxGeometry relative="1" as="geometry">
            <Array as="points">
              <mxPoint x="220" y="415" />
              <mxPoint x="220" y="450" />
            </Array>
          </mxGeometry>
        </mxCell>
        <mxCell id="hHR5lF73qiIwatu3_dXv-14" style="edgeStyle=orthogonalEdgeStyle;rounded=0;orthogonalLoop=1;jettySize=auto;html=1;entryX=0;entryY=0.5;entryDx=0;entryDy=0;" edge="1" parent="1" source="hHR5lF73qiIwatu3_dXv-8" target="hHR5lF73qiIwatu3_dXv-5">
          <mxGeometry relative="1" as="geometry">
            <Array as="points">
              <mxPoint x="220" y="415" />
              <mxPoint x="220" y="565" />
            </Array>
          </mxGeometry>
        </mxCell>
        <mxCell id="hHR5lF73qiIwatu3_dXv-8" value="&lt;font style=&quot;font-size: 21px;&quot;&gt;Player&lt;/font&gt;" style="shape=umlActor;verticalLabelPosition=bottom;verticalAlign=top;html=1;outlineConnect=0;" vertex="1" parent="1">
          <mxGeometry x="100" y="350" width="70" height="130" as="geometry" />
        </mxCell>
        <mxCell id="hHR5lF73qiIwatu3_dXv-15" value="&lt;font size=&quot;1&quot; style=&quot;&quot;&gt;&lt;span style=&quot;font-size: 21px;&quot;&gt;Bomberman game&lt;/span&gt;&lt;/font&gt;" style="rounded=0;whiteSpace=wrap;html=1;gradientColor=none;strokeColor=none;fillColor=none;" vertex="1" parent="1">
          <mxGeometry x="320" y="120" width="280" height="60" as="geometry" />
        </mxCell>
        <mxCell id="hHR5lF73qiIwatu3_dXv-9" value="" style="rounded=0;whiteSpace=wrap;html=1;fillColor=none;" vertex="1" parent="1">
          <mxGeometry x="280" y="120" width="370" height="550" as="geometry" />
        </mxCell>
      </root>
    </mxGraphModel>
  </diagram>
</mxfile>
